<?xml version="1.0" standalone="no"?><!DOCTYPE svg PUBLIC "-//W3C//DTD SVG 1.1//EN" "http://www.w3.org/Graphics/SVG/1.1/DTD/svg11.dtd"><svg t="1726983346363" class="icon" viewBox="0 0 1251 1024" version="1.1" xmlns="http://www.w3.org/2000/svg" p-id="2336" xmlns:xlink="http://www.w3.org/1999/xlink" width="39.09375" height="32"><path d="M684.942222 548.750222a55.296 55.296 0 0 0-54.784 54.784v54.840889c0 29.866667 24.917333 54.784 54.784 54.784a55.296 55.296 0 0 0 54.784-54.784v-54.840889c-4.949333-29.866667-24.917333-54.784-54.784-54.784z m283.875556-214.186666c-44.771556-154.396444-189.212444-258.958222-353.621334-258.958223-164.352 0-308.792889 104.561778-353.621333 258.958223-144.497778 34.872889-244.053333 164.408889-244.053333 313.799111a323.128889 323.128889 0 0 0 323.697778 323.754666h547.953777a323.128889 323.128889 0 0 0 323.697778-323.697777c0-149.447111-99.555556-278.983111-244.053333-313.856zM420.977778 713.159111h69.688889c19.911111 0 39.822222 14.904889 39.822222 39.822222 0 24.917333-14.904889 39.822222-39.822222 39.822223H420.977778a155.192889 155.192889 0 0 1-154.453334-154.396445c0-84.650667 69.745778-164.352 154.453334-164.352h69.688889c19.911111 0 39.822222 14.961778 39.822222 39.822222 0 24.917333-14.904889 39.822222-39.822222 39.822223H420.977778c-44.828444 0-79.701333 34.929778-79.701334 79.758222 0 44.828444 34.872889 79.644444 79.644445 79.644444z m388.494222-54.784c0 69.688889-59.733333 129.479111-129.536 129.479111-69.688889 0-129.479111-59.733333-129.479111-129.479111v-54.840889c0-69.688889 59.733333-129.479111 129.479111-129.479111 69.745778 0 129.536 59.733333 129.536 129.479111v54.840889z m149.447111 129.479111h-104.675555a27.363556 27.363556 0 0 1-24.860445-14.961778c-4.949333-9.955556 0-19.911111 9.955556-29.866666l74.752-59.733334v-10.012444s0-4.949333-5.006223-9.955556c-5.006222-4.949333-9.955556-4.949333-14.961777 0l-14.904889 14.961778c-9.955556 9.955556-24.917333 4.949333-34.872889-5.006222s-5.006222-24.917333 4.949333-34.872889l14.961778-14.904889a62.008889 62.008889 0 0 1 84.650667 4.949334c10.012444 9.955556 19.911111 29.923556 19.911111 44.828444 0 14.961778-9.898667 34.872889-24.860445 44.828444l-19.911111 14.961778h34.872889c14.904889 0 24.860444 9.955556 24.860445 24.917334 0 14.904889-14.904889 29.866667-24.860445 29.866666z" fill="#1ABF6C" p-id="2337"></path><path d="M921.088 38.229333a316.928 316.928 0 0 1 308.906667 388.266667 316.472889 316.472889 0 0 0-201.386667-151.665778c-29.468444-101.546667-102.001778-181.475556-194.958222-224.426666a317.098667 317.098667 0 0 1 87.438222-12.174223z" fill="#1ABF6C" opacity=".4" p-id="2338"></path></svg>